<?xml version="1.0" encoding="UTF-8"?><svg id="a" xmlns="http://www.w3.org/2000/svg" xmlns:xlink="http://www.w3.org/1999/xlink" viewBox="0 0 24 24"><defs><style>.c{fill:none;}.d{clip-path:url(#b);}</style><clipPath id="b"><rect class="c" width="24" height="24"/></clipPath></defs><g class="d"><path d="M17.61,3.73c-1.48,0-2.69,1.21-2.69,2.69s1.21,2.69,2.69,2.69,2.69-1.21,2.69-2.69-1.21-2.69-2.69-2.69ZM5.9,10.93c-1.21,0-2.2.99-2.2,2.2s.99,2.2,2.2,2.2,2.2-.99,2.2-2.2-.99-2.2-2.2-2.2ZM18.01,11.19s-.01,0-.02,0c-.07,0-.14,0-.21.01-.06,0-.11,0-.17,0-.57,0-1.13-.1-1.65-.29-.06-.02-.12-.05-.19-.08-.04-.02-.08-.03-.13-.05-.06-.03-.13-.06-.19-.09-.04-.02-.08-.04-.11-.06-.07-.04-.13-.07-.19-.11-.03-.02-.07-.04-.1-.06-.09-.06-.18-.12-.26-.18-.37-.27-.85-.3-1.23-.09l-2.78,1.55c-.39.21-.61.64-.58,1.07,0,.11.01.22.01.32,0,.14,0,.28-.02.41-.04.43.18.85.56,1.07l1.48.85c.19.11.4.16.6.16.23,0,.45-.07.64-.2.36-.25.75-.44,1.17-.55.45-.12.77-.47.85-.91l.36-2.04c.54.17,1.1.27,1.69.27l-.3,2.07c-.06.43.13.84.51,1.09,1.09.72,1.73,1.91,1.72,3.21,0,1.98-1.63,3.69-3.61,3.79-1.06.06-2.07-.31-2.84-1.04-.77-.73-1.2-1.71-1.2-2.77,0-.07,0-.14,0-.22.03-.43-.21-.85-.61-1.06l-1.52-.81c-.17-.09-.36-.14-.54-.14-.24,0-.47.07-.66.22-.76.58-1.66.88-2.61.88-1.22,0-2.39-.52-3.21-1.44-.83-.93-1.21-2.12-1.07-3.36.22-1.97,1.8-3.56,3.77-3.79,1.05-.12,2.1.14,2.96.74.36.25.84.26,1.23.03l2.73-1.62c.38-.23.59-.65.54-1.1-.05-.46-.03-.93.06-1.39.39-2.08,2.13-3.67,4.24-3.87,1.37-.13,2.68.3,3.69,1.22,1,.91,1.57,2.2,1.57,3.55,0,2.48-1.95,4.57-4.4,4.78ZM15.66,20.27c.94,0,1.71-.77,1.71-1.71s-.77-1.71-1.71-1.71-1.71.77-1.71,1.71.77,1.71,1.71,1.71Z"/></g></svg>