<?xml version="1.0" encoding="UTF-8"?><svg id="a" xmlns="http://www.w3.org/2000/svg" xmlns:xlink="http://www.w3.org/1999/xlink" viewBox="0 0 24 24"><defs><style>.c{fill:none;}.d{clip-path:url(#b);}</style><clipPath id="b"><rect class="c" width="24" height="24"/></clipPath></defs><g class="d"><path d="M10.65,11.71l3.08-1.71c.42-.23.96-.2,1.36.1.88.64,1.96,1.02,3.12,1.02,2.92,0,5.3-2.38,5.3-5.3,0-1.49-.63-2.92-1.74-3.93-1.12-1.02-2.57-1.5-4.08-1.35-2.33.22-4.26,1.98-4.69,4.28-.1.51-.12,1.03-.07,1.54.05.5-.18.97-.6,1.22l-3.02,1.79c-.43.26-.96.24-1.36-.03-.95-.66-2.11-.95-3.27-.81-2.18.25-3.93,2.01-4.17,4.19-.15,1.37.27,2.69,1.18,3.72.9,1.01,2.2,1.59,3.55,1.59,1.05,0,2.05-.34,2.89-.98.21-.16.47-.24.73-.24.2,0,.41.05.6.15l1.68.9c.44.24.71.7.68,1.17,0,.08,0,.16,0,.24,0,1.17.47,2.26,1.32,3.07.85.81,1.97,1.21,3.14,1.15,2.19-.12,3.98-2,3.99-4.2,0-1.43-.71-2.76-1.91-3.55-.41-.27-.63-.73-.56-1.2l.33-2.3c-.65,0-1.28-.11-1.87-.3l-.4,2.26c-.09.48-.44.87-.94,1-.47.13-.9.33-1.3.61-.21.15-.46.22-.71.22-.23,0-.46-.06-.66-.18l-1.63-.94c-.42-.25-.67-.71-.62-1.18.01-.15.02-.3.02-.45,0-.12,0-.24-.01-.36-.04-.48.22-.95.64-1.19ZM18.21,2.84c1.64,0,2.97,1.33,2.97,2.97s-1.33,2.97-2.97,2.97-2.97-1.33-2.97-2.97,1.33-2.97,2.97-2.97ZM5.25,15.69c-1.34,0-2.44-1.09-2.44-2.44s1.09-2.44,2.44-2.44,2.44,1.09,2.44,2.44-1.09,2.44-2.44,2.44ZM16.05,17.36c1.05,0,1.9.85,1.9,1.9s-.85,1.9-1.9,1.9-1.9-.85-1.9-1.9.85-1.9,1.9-1.9Z"/></g></svg>